<mxfile host="app.diagrams.net" agent="Mozilla/5.0 (Macintosh; Intel Mac OS X 10_15_7) AppleWebKit/537.36 (KHTML, like Gecko) Chrome/138.0.0.0 Safari/537.36" version="28.0.7">
  <diagram name="Page-1" id="VBQnPb4yAGSVsUoiH6VY">
    <mxGraphModel dx="1426" dy="766" grid="1" gridSize="10" guides="1" tooltips="1" connect="1" arrows="1" fold="1" page="1" pageScale="1" pageWidth="850" pageHeight="1100" math="0" shadow="0">
      <root>
        <mxCell id="0" />
        <mxCell id="1" parent="0" />
        <mxCell id="ntG0rh6Tp32D91EhYLWO-3" value="" style="edgeStyle=orthogonalEdgeStyle;rounded=0;orthogonalLoop=1;jettySize=auto;html=1;" edge="1" parent="1" source="ntG0rh6Tp32D91EhYLWO-1" target="ntG0rh6Tp32D91EhYLWO-2">
          <mxGeometry relative="1" as="geometry" />
        </mxCell>
        <mxCell id="ntG0rh6Tp32D91EhYLWO-1" value="Sign up" style="rounded=1;whiteSpace=wrap;html=1;" vertex="1" parent="1">
          <mxGeometry x="160" y="80" width="120" height="60" as="geometry" />
        </mxCell>
        <mxCell id="ntG0rh6Tp32D91EhYLWO-5" value="" style="edgeStyle=orthogonalEdgeStyle;rounded=0;orthogonalLoop=1;jettySize=auto;html=1;" edge="1" parent="1" source="ntG0rh6Tp32D91EhYLWO-2" target="ntG0rh6Tp32D91EhYLWO-4">
          <mxGeometry relative="1" as="geometry" />
        </mxCell>
        <mxCell id="ntG0rh6Tp32D91EhYLWO-16" value="" style="edgeStyle=orthogonalEdgeStyle;rounded=0;orthogonalLoop=1;jettySize=auto;html=1;" edge="1" parent="1" source="ntG0rh6Tp32D91EhYLWO-2" target="ntG0rh6Tp32D91EhYLWO-10">
          <mxGeometry relative="1" as="geometry" />
        </mxCell>
        <mxCell id="ntG0rh6Tp32D91EhYLWO-2" value="&lt;div&gt;Select Sign Up Method&lt;/div&gt;" style="rounded=1;whiteSpace=wrap;html=1;" vertex="1" parent="1">
          <mxGeometry x="160" y="180" width="120" height="60" as="geometry" />
        </mxCell>
        <mxCell id="ntG0rh6Tp32D91EhYLWO-7" value="" style="edgeStyle=orthogonalEdgeStyle;rounded=0;orthogonalLoop=1;jettySize=auto;html=1;" edge="1" parent="1" source="ntG0rh6Tp32D91EhYLWO-18" target="ntG0rh6Tp32D91EhYLWO-6">
          <mxGeometry relative="1" as="geometry">
            <Array as="points">
              <mxPoint x="140" y="500" />
              <mxPoint x="220" y="500" />
            </Array>
          </mxGeometry>
        </mxCell>
        <mxCell id="ntG0rh6Tp32D91EhYLWO-4" value="Email &amp;amp; Password" style="rounded=1;whiteSpace=wrap;html=1;" vertex="1" parent="1">
          <mxGeometry x="80" y="300" width="120" height="60" as="geometry" />
        </mxCell>
        <mxCell id="ntG0rh6Tp32D91EhYLWO-9" value="" style="edgeStyle=orthogonalEdgeStyle;rounded=0;orthogonalLoop=1;jettySize=auto;html=1;" edge="1" parent="1" source="ntG0rh6Tp32D91EhYLWO-6" target="ntG0rh6Tp32D91EhYLWO-8">
          <mxGeometry relative="1" as="geometry" />
        </mxCell>
        <mxCell id="ntG0rh6Tp32D91EhYLWO-6" value="Save User details in DB" style="rounded=1;whiteSpace=wrap;html=1;" vertex="1" parent="1">
          <mxGeometry x="160" y="550" width="120" height="60" as="geometry" />
        </mxCell>
        <mxCell id="ntG0rh6Tp32D91EhYLWO-8" value="/dashboard" style="whiteSpace=wrap;html=1;rounded=1;" vertex="1" parent="1">
          <mxGeometry x="160" y="670" width="120" height="60" as="geometry" />
        </mxCell>
        <mxCell id="ntG0rh6Tp32D91EhYLWO-17" value="" style="edgeStyle=orthogonalEdgeStyle;rounded=0;orthogonalLoop=1;jettySize=auto;html=1;" edge="1" parent="1" source="ntG0rh6Tp32D91EhYLWO-10" target="ntG0rh6Tp32D91EhYLWO-6">
          <mxGeometry relative="1" as="geometry">
            <Array as="points">
              <mxPoint x="300" y="500" />
              <mxPoint x="220" y="500" />
            </Array>
          </mxGeometry>
        </mxCell>
        <mxCell id="ntG0rh6Tp32D91EhYLWO-10" value="Google Login" style="whiteSpace=wrap;html=1;rounded=1;" vertex="1" parent="1">
          <mxGeometry x="240" y="300" width="120" height="60" as="geometry" />
        </mxCell>
        <mxCell id="ntG0rh6Tp32D91EhYLWO-12" value="Get user details from Google" style="whiteSpace=wrap;html=1;rounded=1;" vertex="1" parent="1">
          <mxGeometry x="240" y="390" width="120" height="60" as="geometry" />
        </mxCell>
        <mxCell id="ntG0rh6Tp32D91EhYLWO-19" value="" style="edgeStyle=orthogonalEdgeStyle;rounded=0;orthogonalLoop=1;jettySize=auto;html=1;" edge="1" parent="1" source="ntG0rh6Tp32D91EhYLWO-4" target="ntG0rh6Tp32D91EhYLWO-18">
          <mxGeometry relative="1" as="geometry">
            <mxPoint x="140" y="360" as="sourcePoint" />
            <mxPoint x="220" y="570" as="targetPoint" />
            <Array as="points" />
          </mxGeometry>
        </mxCell>
        <mxCell id="ntG0rh6Tp32D91EhYLWO-18" value="Email Verification" style="whiteSpace=wrap;html=1;rounded=1;" vertex="1" parent="1">
          <mxGeometry x="80" y="390" width="120" height="60" as="geometry" />
        </mxCell>
        <mxCell id="ntG0rh6Tp32D91EhYLWO-30" value="" style="edgeStyle=orthogonalEdgeStyle;rounded=0;orthogonalLoop=1;jettySize=auto;html=1;" edge="1" parent="1" source="ntG0rh6Tp32D91EhYLWO-31" target="ntG0rh6Tp32D91EhYLWO-34">
          <mxGeometry relative="1" as="geometry" />
        </mxCell>
        <mxCell id="ntG0rh6Tp32D91EhYLWO-31" value="Sign In" style="rounded=1;whiteSpace=wrap;html=1;" vertex="1" parent="1">
          <mxGeometry x="560" y="80" width="120" height="60" as="geometry" />
        </mxCell>
        <mxCell id="ntG0rh6Tp32D91EhYLWO-32" value="" style="edgeStyle=orthogonalEdgeStyle;rounded=0;orthogonalLoop=1;jettySize=auto;html=1;" edge="1" parent="1" source="ntG0rh6Tp32D91EhYLWO-34" target="ntG0rh6Tp32D91EhYLWO-36">
          <mxGeometry relative="1" as="geometry" />
        </mxCell>
        <mxCell id="ntG0rh6Tp32D91EhYLWO-33" value="" style="edgeStyle=orthogonalEdgeStyle;rounded=0;orthogonalLoop=1;jettySize=auto;html=1;" edge="1" parent="1" source="ntG0rh6Tp32D91EhYLWO-34" target="ntG0rh6Tp32D91EhYLWO-41">
          <mxGeometry relative="1" as="geometry" />
        </mxCell>
        <mxCell id="ntG0rh6Tp32D91EhYLWO-34" value="&lt;div&gt;Select Sign In&lt;/div&gt;&lt;div&gt;&amp;nbsp;Method&lt;/div&gt;" style="rounded=1;whiteSpace=wrap;html=1;" vertex="1" parent="1">
          <mxGeometry x="560" y="180" width="120" height="60" as="geometry" />
        </mxCell>
        <mxCell id="ntG0rh6Tp32D91EhYLWO-46" value="" style="edgeStyle=orthogonalEdgeStyle;rounded=0;orthogonalLoop=1;jettySize=auto;html=1;" edge="1" parent="1" source="ntG0rh6Tp32D91EhYLWO-36">
          <mxGeometry relative="1" as="geometry">
            <mxPoint x="620" y="550" as="targetPoint" />
            <Array as="points">
              <mxPoint x="540" y="490" />
              <mxPoint x="621" y="490" />
            </Array>
          </mxGeometry>
        </mxCell>
        <mxCell id="ntG0rh6Tp32D91EhYLWO-36" value="Email &amp;amp; Password" style="rounded=1;whiteSpace=wrap;html=1;" vertex="1" parent="1">
          <mxGeometry x="480" y="300" width="120" height="60" as="geometry" />
        </mxCell>
        <mxCell id="ntG0rh6Tp32D91EhYLWO-37" value="" style="edgeStyle=orthogonalEdgeStyle;rounded=0;orthogonalLoop=1;jettySize=auto;html=1;" edge="1" parent="1" source="ntG0rh6Tp32D91EhYLWO-38" target="ntG0rh6Tp32D91EhYLWO-39">
          <mxGeometry relative="1" as="geometry" />
        </mxCell>
        <mxCell id="ntG0rh6Tp32D91EhYLWO-38" value="Validate User details in the DB" style="rounded=1;whiteSpace=wrap;html=1;" vertex="1" parent="1">
          <mxGeometry x="560" y="550" width="120" height="60" as="geometry" />
        </mxCell>
        <mxCell id="ntG0rh6Tp32D91EhYLWO-39" value="/dashboard" style="whiteSpace=wrap;html=1;rounded=1;" vertex="1" parent="1">
          <mxGeometry x="560" y="670" width="120" height="60" as="geometry" />
        </mxCell>
        <mxCell id="ntG0rh6Tp32D91EhYLWO-40" value="" style="edgeStyle=orthogonalEdgeStyle;rounded=0;orthogonalLoop=1;jettySize=auto;html=1;exitX=0.5;exitY=1;exitDx=0;exitDy=0;" edge="1" parent="1" source="ntG0rh6Tp32D91EhYLWO-47" target="ntG0rh6Tp32D91EhYLWO-38">
          <mxGeometry relative="1" as="geometry">
            <Array as="points">
              <mxPoint x="700" y="490" />
              <mxPoint x="620" y="490" />
            </Array>
            <mxPoint x="700" y="480" as="sourcePoint" />
          </mxGeometry>
        </mxCell>
        <mxCell id="ntG0rh6Tp32D91EhYLWO-41" value="Google Login" style="whiteSpace=wrap;html=1;rounded=1;" vertex="1" parent="1">
          <mxGeometry x="640" y="300" width="120" height="60" as="geometry" />
        </mxCell>
        <mxCell id="ntG0rh6Tp32D91EhYLWO-48" value="" style="edgeStyle=orthogonalEdgeStyle;rounded=0;orthogonalLoop=1;jettySize=auto;html=1;" edge="1" parent="1" source="ntG0rh6Tp32D91EhYLWO-41" target="ntG0rh6Tp32D91EhYLWO-47">
          <mxGeometry relative="1" as="geometry">
            <Array as="points" />
            <mxPoint x="700" y="360" as="sourcePoint" />
            <mxPoint x="620" y="500" as="targetPoint" />
          </mxGeometry>
        </mxCell>
        <mxCell id="ntG0rh6Tp32D91EhYLWO-47" value="Get user details from Google" style="whiteSpace=wrap;html=1;rounded=1;" vertex="1" parent="1">
          <mxGeometry x="640" y="400" width="120" height="60" as="geometry" />
        </mxCell>
      </root>
    </mxGraphModel>
  </diagram>
</mxfile>
